G04 ================== begin FILE IDENTIFICATION RECORD ==================*
G04 Layout Name:  G:/Cadence Allegro/My_Prj/CH340G/PCB/CH340G-PCB.brd*
G04 Film Name:    02_BOTTOM*
G04 File Format:  Gerber RS274X*
G04 File Origin:  Cadence Allegro 16.6-2015-S108*
G04 Origin Date:  Fri Feb 07 20:31:13 2020*
G04 *
G04 Layer:  BOARD GEOMETRY/OUTLINE*
G04 Layer:  ETCH/BOTTOM*
G04 Layer:  PIN/BOTTOM*
G04 Layer:  VIA CLASS/BOTTOM*
G04 *
G04 Offset:    (0.000 0.000)*
G04 Mirror:    No*
G04 Mode:      Positive*
G04 Rotation:  0*
G04 FullContactRelief:  No*
G04 UndefLineWidth:     6.000*
G04 ================== end FILE IDENTIFICATION RECORD ====================*
%FSLAX25Y25*MOIN*%
%IR0*IPPOS*OFA0.00000B0.00000*MIA0B0*SFA1.00000B1.00000*%
%ADD11O,.137799X.078701*%
%ADD20R,.032X.035*%
%ADD19R,.036X.031*%
%ADD18R,.035X.032*%
%ADD21R,.045X.05*%
%ADD14C,.024*%
%ADD12C,.063*%
%ADD24R,.051201X.070902*%
%ADD10C,.047201*%
%ADD13R,.063X.063*%
%ADD17R,.035402X.037402*%
%ADD16C,.039402*%
%ADD22C,.062992*%
%ADD25C,.059098*%
%ADD23R,.062992X.062992*%
%ADD15O,.078701X.025598*%
%ADD26C,.008*%
%ADD27C,.02*%
%ADD28C,.03*%
%ADD29C,.05*%
%ADD30C,.015*%
%ADD31C,.006*%
%ADD34C,.089102*%
%ADD32C,.077206*%
%ADD33C,.079406*%
G75*
%LPD*%
G75*
G36*
G01X18000Y48487D02*
G03Y42082I2640J-3202D01*
G01Y39273D01*
G03X17917Y31676I2640J-3828D01*
G01X18000Y31616D01*
Y31395D01*
X17917Y31335D01*
G03X18000Y23737I2723J-3770D01*
G01Y22375D01*
X16230D01*
Y22582D01*
G03X15288Y20117I-3860J63D01*
G02X15990Y19855I302J-262D01*
G01Y13994D01*
G02X15570Y13594I-400J0D01*
G03X15325Y13600I-243J-4929D01*
G01X9415D01*
G03Y3730I0J-4935D01*
G01X15325D01*
G03X17429Y4201I0J4935D01*
G02X18000Y3839I171J-362D01*
G01Y2000D01*
X5906D01*
G02X2000Y5906I0J3905D01*
G01Y57087D01*
G02X5906Y60992I3905J0D01*
G01X18000D01*
Y59161D01*
G02X17429Y58799I-400J0D01*
G03X15325Y59270I-2105J-4464D01*
G01X9415D01*
G03Y49400I0J-4935D01*
G01X15325D01*
G03X17429Y49871I0J4935D01*
G02X18000Y49509I171J-362D01*
G01Y48487D01*
G37*
G36*
G01X43401Y29287D02*
X41900Y30787D01*
Y35908D01*
G02X42331Y36306I400J0D01*
G03X42627Y36304I169J2194D01*
G02X43050Y35904I23J-399D01*
G01Y34950D01*
X49250D01*
Y30280D01*
X46035D01*
G03X43685Y29289I0J-3280D01*
G02X43401Y29287I-143J140D01*
G37*
G36*
G01X94960Y2000D02*
Y8778D01*
X96632Y10450D01*
X98950D01*
Y28618D01*
X100166Y29834D01*
G03X100268Y29942I-1591J1591D01*
G02X100851Y29962I301J-264D01*
G01X103813Y27000D01*
X112813D01*
X113419Y26394D01*
X113373Y26272D01*
G03X119774Y29126I4627J-1772D01*
G02Y29874I143J373D01*
G03Y39126I-1774J4626D01*
G02Y39874I143J374D01*
G03X116226I-1774J4626D01*
G02Y39126I-143J-373D01*
G03X113171Y33390I1774J-4627D01*
G02X112781Y32900I-390J-90D01*
G01X106287D01*
X101654Y37533D01*
X102000Y37879D01*
Y43621D01*
X100121Y45500D01*
X76379D01*
X75000Y44121D01*
Y40653D01*
G02X74317Y40370I-400J0D01*
G01X71787Y42900D01*
X65787D01*
X62787Y45900D01*
X59970D01*
Y47870D01*
X52430D01*
Y42050D01*
X47570D01*
Y47870D01*
X40030D01*
Y45700D01*
G03X38116Y44636I-30J-2200D01*
G02X37565Y44501I-343J207D01*
G03X37400Y44596I-2064J-3392D01*
G01Y54287D01*
X34129Y57558D01*
X34114Y57608D01*
G03X31392Y54886I-2114J-608D01*
G01X31442Y54871D01*
X33600Y52713D01*
Y44596D01*
G03X37498Y37679I1900J-3486D01*
G02X38100Y37334I201J-346D01*
G01Y29213D01*
X42213Y25100D01*
X43361D01*
G03X43628Y24772I2674J1900D01*
G02Y24228I-294J-272D01*
G03Y19772I2407J-2228D01*
G02Y19228I-294J-272D01*
G03Y14772I2407J-2228D01*
G02Y14228I-294J-272D01*
G03X43081Y10574I2407J-2228D01*
G02X42721Y10000I-360J-174D01*
G01X34022D01*
X25790Y18232D01*
Y22875D01*
X24161D01*
G02X23908Y23584I0J400D01*
G03X24267Y31221I-3268J3981D01*
G02Y31789I282J284D01*
G03X22467Y40260I-3627J3656D01*
G02X22453Y41003I142J374D01*
G03X20419Y49930I-1813J4282D01*
G02X20000Y50329I-19J400D01*
G01Y51562D01*
X20027Y51609D01*
G03X20000Y57107I-4702J2726D01*
G01Y60992D01*
X55850D01*
Y51850D01*
X66150D01*
Y53684D01*
G02X66871Y53923I400J0D01*
G03X74926Y60333I4129J3077D01*
G02X75231Y60992I305J259D01*
G01X120079D01*
G02X123984Y57087I0J-3905D01*
G01Y5906D01*
G02X120079Y2000I-3905J0D01*
G01X94960D01*
G37*
G36*
G01X58550Y10000D02*
G02X58234Y10646I0J400D01*
G03X55391Y13900I-1734J1354D01*
G01X54019D01*
G03X53752Y14228I-2674J-1900D01*
G02Y14772I294J272D01*
G03X54019Y15100I-2407J2228D01*
G01X55391D01*
G03Y18900I1109J1900D01*
G01X54019D01*
G03X53752Y19228I-2674J-1900D01*
G02Y19772I294J272D01*
G03Y24228I-2407J2228D01*
G02Y24772I294J272D01*
G03X53753Y29228I-2407J2228D01*
G02X54046Y29900I294J272D01*
G01X56750D01*
Y30904D01*
G02X57127Y31304I400J0D01*
G03X57138Y35696I-127J2197D01*
G02X56950Y35896I12J200D01*
G01Y39030D01*
X61283D01*
X63713Y36600D01*
X69713D01*
X74213Y32100D01*
X79447D01*
G02X79730Y31417I0J-400D01*
G01X77599Y29287D01*
G02X77315Y29289I-141J141D01*
G03X74965Y30280I-2350J-2289D01*
G01X69655D01*
G03X67248Y24772I0J-3280D01*
G02Y24228I-294J-272D01*
G03Y19772I2407J-2228D01*
G02Y19228I-294J-272D01*
G03X69655Y13720I2407J-2228D01*
G01X74965D01*
G03X78120Y16104I0J3280D01*
G01X78162Y16250D01*
X83212D01*
G02X83494Y15565I0J-400D01*
G03X83743Y12223I1546J-1565D01*
G02X83507Y11500I-236J-323D01*
G01X77879D01*
X76879Y10500D01*
X68250D01*
Y10000D01*
X58550D01*
G37*
G36*
G01X77500Y3000D02*
X77000Y3500D01*
Y8500D01*
X78500Y10000D01*
X93000D01*
Y3000D01*
X77500D01*
G37*
G36*
G01X79500Y44000D02*
X99500D01*
X100500Y43000D01*
Y38500D01*
X99500Y37500D01*
X80000D01*
X78500D01*
X77000D01*
X76500Y38000D01*
Y43500D01*
X77000Y44000D01*
X78000D01*
X79500D01*
G37*
%LPC*%
G75*
G54D34*
X118000Y14500D03*
G54D32*
X12370Y40365D03*
G54D33*
X35500Y21890D03*
%LPD*%
G75*
G54D10*
X12370Y22645D03*
Y40365D03*
G54D20*
X80000Y14000D03*
Y20000D03*
G54D11*
X12370Y8665D03*
Y54335D03*
G54D30*
G01X47000Y33500D02*
X42500D01*
G01X72310Y12000D02*
X66000D01*
G01X72310D02*
X78000D01*
X80000Y14000D01*
G01Y20000D02*
Y23500D01*
G01X72310Y22000D02*
X78000D01*
X80000Y20000D01*
G01X102600Y6500D02*
X106450D01*
G01X102600D02*
Y11745D01*
G01X95150Y21000D02*
Y28000D01*
G01D02*
X98575Y31425D01*
G01X95150Y14000D02*
Y12150D01*
X90400Y7400D01*
G54D12*
X20640Y27565D03*
Y45285D03*
Y35445D03*
G54D21*
X72500Y6000D03*
X79500D03*
G54D31*
G01X5906Y0D02*
X120079D01*
G03X125984Y5906I0J5906D01*
G01Y57087D01*
G03X120079Y62992I-5906J0D01*
G01X5906D01*
G03X0Y57087I0J-5906D01*
G01Y5906D01*
G03X5906Y0I5906J0D01*
G54D22*
X71000Y57000D03*
G54D13*
X20640Y17725D03*
G54D23*
X61000Y57000D03*
G54D14*
X12000Y31000D03*
X11500Y45500D03*
X42500Y24500D03*
X26000Y31500D03*
Y24000D03*
X41500Y10500D03*
X40000Y43500D03*
X42500Y38500D03*
Y33500D03*
X29428Y54072D03*
X28500Y42000D03*
X45500Y57000D03*
X42500Y48500D03*
X32000Y57000D03*
X63000Y27500D03*
X56500Y21000D03*
X66000Y12000D03*
X80000Y23500D03*
X56500Y17000D03*
Y12000D03*
X76500Y58500D03*
X52509Y57000D03*
X56934Y36700D03*
X63000Y46509D03*
Y33500D03*
X57000D03*
X79636Y40497D03*
X84997Y31200D03*
X99000Y17500D03*
X102600Y11745D03*
X106450Y6500D03*
X98575Y31425D03*
X85040Y14000D03*
X84800Y4600D03*
Y7500D03*
X85040Y28000D03*
Y21000D03*
X107500Y58000D03*
Y54000D03*
X82800Y58500D03*
X82833Y40646D03*
X98500Y39500D03*
X98594Y42300D03*
G54D15*
X48690Y12000D03*
Y17000D03*
Y22000D03*
Y27000D03*
X72310Y12000D03*
Y17000D03*
Y22000D03*
Y27000D03*
G54D24*
X102600Y6500D03*
X90400D03*
G54D25*
X118000Y24500D03*
Y14500D03*
Y44500D03*
Y34500D03*
G54D16*
X35500Y21890D03*
Y41110D03*
G54D26*
G01X40000Y43500D02*
Y30000D01*
X43000Y27000D01*
X48690D01*
G01Y17000D02*
X56500D01*
G01X48690Y12000D02*
X56500D01*
G01X40000Y43500D02*
X43300D01*
X43800Y44000D01*
G01X46850Y38500D02*
X42500D01*
G01X35500Y41110D02*
Y53500D01*
X32000Y57000D01*
G01X84997Y31200D02*
X82200D01*
X78000Y27000D01*
X72310D01*
G01X53000Y33500D02*
X57000D01*
G01X56200Y44000D02*
X62000D01*
X65000Y41000D01*
X71000D01*
X76000Y36000D01*
X100500D01*
X105500Y31000D01*
X114500D01*
X118000Y34500D01*
G01Y24500D02*
X113600Y28900D01*
X104600D01*
X99500Y34000D01*
X75000D01*
X70500Y38500D01*
X64500D01*
X62070Y40930D01*
X55930D01*
X53500Y38500D01*
X53150D01*
G01X88850Y14000D02*
X85040D01*
G01X88850Y28000D02*
X85040D01*
G01X88850Y21000D02*
X85040D01*
G54D17*
X43800Y44000D03*
X56200D03*
G54D27*
G01X12370Y3530D02*
Y8665D01*
G01D02*
Y13800D01*
G01X4280Y8665D02*
X12370D01*
G01Y49200D02*
Y54335D01*
G01D02*
Y59470D01*
G01X4280Y54335D02*
X12370D01*
G01X20640Y45285D02*
Y50135D01*
G01Y45285D02*
X25490D01*
G01X118000Y9845D02*
Y14500D01*
G01D02*
Y19155D01*
G01X113345Y14500D02*
X118000D01*
G01D02*
X122655D01*
G54D18*
X47000Y33500D03*
X53000D03*
G54D28*
G01X12370Y54335D02*
X20960D01*
G54D19*
X46850Y38500D03*
X53150D03*
X88850Y14000D03*
X95150D03*
Y28000D03*
X88850D03*
X95150Y21000D03*
X88850D03*
G54D29*
G01X20640Y17725D02*
X32365Y6000D01*
X72500D01*
M02*
