G04 ================== begin FILE IDENTIFICATION RECORD ==================*
G04 Layout Name:  G:/Cadence Allegro/My_Prj/CH340G/PCB/CH340G-PCB.brd*
G04 Film Name:    04_SILK_TOP*
G04 File Format:  Gerber RS274X*
G04 File Origin:  Cadence Allegro 16.6-2015-S108*
G04 Origin Date:  Fri Feb 07 20:31:13 2020*
G04 *
G04 Layer:  BOARD GEOMETRY/OUTLINE*
G04 Layer:  PACKAGE GEOMETRY/SILKSCREEN_TOP*
G04 Layer:  BOARD GEOMETRY/SILKSCREEN_TOP*
G04 Layer:  REF DES/SILKSCREEN_TOP*
G04 *
G04 Offset:    (0.000 0.000)*
G04 Mirror:    No*
G04 Mode:      Positive*
G04 Rotation:  0*
G04 FullContactRelief:  No*
G04 UndefLineWidth:     6.000*
G04 ================== end FILE IDENTIFICATION RECORD ====================*
%FSLAX25Y25*MOIN*%
%IR0*IPPOS*OFA0.00000B0.00000*MIA0B0*SFA1.00000B1.00000*%
%ADD10C,.005*%
%ADD11C,.006*%
%ADD12C,.007*%
%ADD13C,.007902*%
%ADD14C,.01*%
G75*
%LPD*%
G75*
G36*
G01X91210Y15970D02*
Y12030D01*
X93180Y14000D01*
X91210Y15970D01*
G37*
G36*
G01X91210Y22970D02*
Y19030D01*
X93180Y21000D01*
X91210Y22970D01*
G37*
G36*
G01Y29970D02*
Y26030D01*
X93180Y28000D01*
X91210Y29970D01*
G37*
G54D10*
G01X44000Y3500D02*
X39500D01*
G01X38900Y4900D02*
Y7200D01*
G01X38200Y4900D02*
Y7200D01*
G01X39500Y8500D02*
X44000D01*
Y3500D01*
G01X37500D02*
X33000D01*
Y8500D01*
X37500D01*
G01X44000Y54500D02*
X39500D01*
G01X38900Y55900D02*
Y58200D01*
G01X38200Y55900D02*
Y58200D01*
G01X39500Y59500D02*
X44000D01*
Y54500D01*
G01X37500D02*
X33000D01*
Y59500D01*
X37500D01*
G01X64000Y51000D02*
X68000D01*
Y11000D01*
X55000D01*
Y51000D01*
G01X60200D02*
G03X63000Y49500I1802J0D01*
G01D02*
G03X63800Y51000I-1006J1500D01*
G01X55000D02*
X60000D01*
G01X77000Y50000D02*
Y54500D01*
G01X78400Y55100D02*
X80700D01*
G01X78400Y55800D02*
X80700D01*
G01X82000Y54500D02*
Y50000D01*
X77000D01*
G01Y56500D02*
Y61000D01*
X82000D01*
Y56500D01*
G01X56000Y62000D02*
X76000D01*
Y52000D01*
X56000D01*
Y62000D01*
G01X99785Y20650D02*
Y23650D01*
G01X101285Y22150D02*
X99785Y20650D01*
G01Y23650D02*
X101285Y22150D01*
G01X83500Y11000D02*
X85500D01*
G01X84500Y12000D02*
Y10000D01*
G01X93000Y17000D02*
X98000D01*
Y11000D01*
X93000D01*
G01X91000Y17000D02*
X86000D01*
Y11000D01*
X91000D01*
G01X83500Y18000D02*
X85500D01*
G01X84500Y19000D02*
Y17000D01*
G01X93000Y24000D02*
X98000D01*
Y18000D01*
X93000D01*
G01X91000Y24000D02*
X86000D01*
Y18000D01*
X91000D01*
G01X83500Y25000D02*
X85500D01*
G01X84500Y26000D02*
Y24000D01*
G01X93000Y31000D02*
X98000D01*
Y25000D01*
X93000D01*
G01X91000Y31000D02*
X86000D01*
Y25000D01*
X91000D01*
G01X84000Y58000D02*
Y55000D01*
G01X83000Y56500D02*
X85000D01*
G01X85500Y61000D02*
X106500D01*
Y51000D01*
X85500D01*
Y61000D01*
G01X96790Y59150D02*
Y53240D01*
G01X95210Y59150D02*
Y53240D01*
G01X86000Y37000D02*
X98000D01*
Y32000D01*
X86000D01*
Y37000D01*
G01X123175Y16310D02*
X125535D01*
Y42690D01*
X123175D01*
G01X110575Y21830D02*
X112155D01*
Y16310D01*
G01X113000Y9500D02*
Y49500D01*
X123000D01*
Y9500D01*
X113000D01*
G01X110575Y37180D02*
X112155D01*
Y42690D01*
G54D11*
G01X97480Y42820D02*
Y46760D01*
X94260D01*
G01X88740D02*
X85520D01*
Y42820D01*
G01X90320Y41240D02*
X92680D01*
G01X88740Y46760D02*
X85520D01*
Y42820D01*
G01X97480D02*
Y46760D01*
X94260D01*
G01X90320Y41240D02*
X92680D01*
G01X5906Y0D02*
X120079D01*
G03X125984Y5906I0J5906D01*
G01Y57087D01*
G03X120079Y62992I-5906J0D01*
G01X5906D01*
G03X0Y57087I0J-5906D01*
G01Y5906D01*
G03X5906Y0I5906J0D01*
G54D12*
G01X16400Y4500D02*
Y1992D01*
X16600Y1467D01*
X17000Y1117D01*
X17500Y1000D01*
X18000Y1117D01*
X18400Y1467D01*
X18600Y1992D01*
Y4500D01*
G01X19950Y1467D02*
X20350Y1175D01*
X20800Y1000D01*
X21200D01*
X21600Y1175D01*
X21900Y1467D01*
X22050Y1875D01*
X21950Y2283D01*
X21700Y2633D01*
X21250Y2867D01*
X20650Y2983D01*
X20300Y3217D01*
X20150Y3625D01*
X20250Y4033D01*
X20500Y4325D01*
X20850Y4500D01*
X21200D01*
X21550Y4383D01*
X21850Y4092D01*
G01X24900Y2867D02*
X25100Y3042D01*
X25250Y3333D01*
X25350Y3742D01*
X25250Y4092D01*
X25050Y4325D01*
X24700Y4500D01*
X23350D01*
Y1000D01*
X25000D01*
X25350Y1233D01*
X25550Y1583D01*
X25650Y1992D01*
X25550Y2400D01*
X25250Y2750D01*
X24900Y2867D01*
X23350D01*
G01X28000Y1000D02*
Y4500D01*
X27400Y3800D01*
G01Y1000D02*
X28600D01*
G01X47100Y7708D02*
X46800Y7883D01*
X46450Y8000D01*
X46050D01*
X45600Y7825D01*
X45250Y7533D01*
X45000Y7183D01*
X44800Y6600D01*
X44750Y6075D01*
X44850Y5550D01*
X45000Y5200D01*
X45300Y4850D01*
X45650Y4617D01*
X46000Y4500D01*
X46350D01*
X46700Y4617D01*
X47000Y4792D01*
X47250Y5025D01*
G01X48400D02*
X48700Y4733D01*
X49050Y4558D01*
X49500Y4500D01*
X49950Y4617D01*
X50300Y4850D01*
X50550Y5258D01*
X50600Y5725D01*
X50500Y6192D01*
X50250Y6483D01*
X49900Y6717D01*
X49550Y6775D01*
X49200Y6717D01*
X48750Y6483D01*
X48900Y8000D01*
X50250D01*
G01X25000Y7500D02*
Y9075D01*
X24000Y11000D01*
G01X26000D02*
X25000Y9075D01*
G01X28500Y7500D02*
Y11000D01*
X27900Y10300D01*
G01Y7500D02*
X29100D01*
G01X49150Y55500D02*
Y52992D01*
X49350Y52467D01*
X49750Y52117D01*
X50250Y52000D01*
X50750Y52117D01*
X51150Y52467D01*
X51350Y52992D01*
Y55500D01*
G01X53750Y52000D02*
Y55500D01*
X53150Y54800D01*
G01Y52000D02*
X54350D01*
G01X28600Y58708D02*
X28300Y58883D01*
X27950Y59000D01*
X27550D01*
X27100Y58825D01*
X26750Y58533D01*
X26500Y58183D01*
X26300Y57600D01*
X26250Y57075D01*
X26350Y56550D01*
X26500Y56200D01*
X26800Y55850D01*
X27150Y55617D01*
X27500Y55500D01*
X27850D01*
X28200Y55617D01*
X28500Y55792D01*
X28750Y56025D01*
G01X31600Y55500D02*
Y59000D01*
X29750Y56492D01*
X32250D01*
G01X48500Y58700D02*
X48750Y58350D01*
X49050Y58117D01*
X49400Y58000D01*
X49800Y58117D01*
X50100Y58350D01*
X50400Y58700D01*
X50500Y59167D01*
Y61500D01*
G01X51900Y58700D02*
X52200Y58292D01*
X52600Y58058D01*
X53050Y58000D01*
X53450Y58058D01*
X53850Y58350D01*
X54100Y58700D01*
X54150Y59050D01*
X54050Y59458D01*
X53700Y59750D01*
X53350Y59867D01*
X52900D01*
G01X53350D02*
X53650Y60042D01*
X53900Y60333D01*
X54000Y60683D01*
X53900Y61033D01*
X53650Y61325D01*
X53200Y61500D01*
X52750Y61442D01*
X52300Y61208D01*
G01X59792Y22850D02*
X59617Y22550D01*
X59500Y22200D01*
Y21800D01*
X59675Y21350D01*
X59967Y21000D01*
X60317Y20750D01*
X60900Y20550D01*
X61425Y20500D01*
X61950Y20600D01*
X62300Y20750D01*
X62650Y21050D01*
X62883Y21400D01*
X63000Y21750D01*
Y22100D01*
X62883Y22450D01*
X62708Y22750D01*
X62475Y23000D01*
G01X63000Y24200D02*
X59500D01*
G01Y26300D02*
X63000D01*
G01X61250D02*
Y24200D01*
G01X62300Y27650D02*
X62708Y27950D01*
X62942Y28350D01*
X63000Y28800D01*
X62942Y29200D01*
X62650Y29600D01*
X62300Y29850D01*
X61950Y29900D01*
X61542Y29800D01*
X61250Y29450D01*
X61133Y29100D01*
Y28650D01*
G01Y29100D02*
X60958Y29400D01*
X60667Y29650D01*
X60317Y29750D01*
X59967Y29650D01*
X59675Y29400D01*
X59500Y28950D01*
X59558Y28500D01*
X59792Y28050D01*
G01X63000Y32850D02*
X59500D01*
X62008Y31000D01*
Y33500D01*
G01X59500Y35750D02*
X59617Y35350D01*
X59908Y35050D01*
X60258Y34850D01*
X60725Y34700D01*
X61250Y34650D01*
X61775Y34700D01*
X62242Y34850D01*
X62592Y35050D01*
X62883Y35350D01*
X63000Y35750D01*
X62883Y36150D01*
X62592Y36450D01*
X62242Y36650D01*
X61775Y36800D01*
X61250Y36850D01*
X60725Y36800D01*
X60258Y36650D01*
X59908Y36450D01*
X59617Y36150D01*
X59500Y35750D01*
G01X61250Y39550D02*
Y40550D01*
X62300D01*
X62650Y40250D01*
X62883Y39900D01*
X63000Y39400D01*
X62883Y38900D01*
X62650Y38550D01*
X62300Y38250D01*
X61892Y38050D01*
X61425Y37950D01*
X61017D01*
X60667Y38050D01*
X60258Y38250D01*
X59908Y38550D01*
X59675Y38850D01*
X59500Y39250D01*
Y39600D01*
X59617Y40000D01*
X59850Y40300D01*
G01X78150Y13000D02*
Y16500D01*
X79150D01*
X79550Y16325D01*
X79850Y16092D01*
X80100Y15742D01*
X80300Y15333D01*
X80350Y14750D01*
X80300Y14167D01*
X80100Y13758D01*
X79850Y13408D01*
X79550Y13175D01*
X79150Y13000D01*
X78150D01*
G01X81800Y15917D02*
X82100Y16267D01*
X82450Y16442D01*
X82850Y16500D01*
X83350Y16383D01*
X83700Y16092D01*
X83800Y15742D01*
X83750Y15392D01*
X83550Y15100D01*
X82550Y14517D01*
X82100Y14108D01*
X81800Y13525D01*
X81700Y13000D01*
X83800D01*
G01X78150Y20000D02*
Y23500D01*
X79150D01*
X79550Y23325D01*
X79850Y23092D01*
X80100Y22742D01*
X80300Y22333D01*
X80350Y21750D01*
X80300Y21167D01*
X80100Y20758D01*
X79850Y20408D01*
X79550Y20175D01*
X79150Y20000D01*
X78150D01*
G01X83350D02*
Y23500D01*
X81500Y20992D01*
X84000D01*
G01X78150Y27000D02*
Y30500D01*
X79150D01*
X79550Y30325D01*
X79850Y30092D01*
X80100Y29742D01*
X80300Y29333D01*
X80350Y28750D01*
X80300Y28167D01*
X80100Y27758D01*
X79850Y27408D01*
X79550Y27175D01*
X79150Y27000D01*
X78150D01*
G01X81650Y27700D02*
X81950Y27292D01*
X82350Y27058D01*
X82800Y27000D01*
X83200Y27058D01*
X83600Y27350D01*
X83850Y27700D01*
X83900Y28050D01*
X83800Y28458D01*
X83450Y28750D01*
X83100Y28867D01*
X82650D01*
G01X83100D02*
X83400Y29042D01*
X83650Y29333D01*
X83750Y29683D01*
X83650Y30033D01*
X83400Y30325D01*
X82950Y30500D01*
X82500Y30442D01*
X82050Y30208D01*
G01X79500Y38500D02*
X79100Y38558D01*
X78750Y38792D01*
X78450Y39142D01*
X78250Y39550D01*
X78150Y40017D01*
Y40483D01*
X78250Y40950D01*
X78450Y41358D01*
X78750Y41708D01*
X79100Y41942D01*
X79500Y42000D01*
X79900Y41942D01*
X80250Y41708D01*
X80550Y41358D01*
X80750Y40950D01*
X80850Y40483D01*
Y40017D01*
X80750Y39550D01*
X80550Y39142D01*
X80250Y38792D01*
X79900Y38558D01*
X79500Y38500D01*
G01X79900Y39433D02*
X80500Y38500D01*
G01X83000D02*
Y42000D01*
X82400Y41300D01*
G01Y38500D02*
X83600D01*
G01X78292Y45600D02*
X78117Y45300D01*
X78000Y44950D01*
Y44550D01*
X78175Y44100D01*
X78467Y43750D01*
X78817Y43500D01*
X79400Y43300D01*
X79925Y43250D01*
X80450Y43350D01*
X80800Y43500D01*
X81150Y43800D01*
X81383Y44150D01*
X81500Y44500D01*
Y44850D01*
X81383Y45200D01*
X81208Y45500D01*
X80975Y45750D01*
G01X78583Y47050D02*
X78233Y47350D01*
X78058Y47700D01*
X78000Y48100D01*
X78117Y48600D01*
X78408Y48950D01*
X78758Y49050D01*
X79108Y49000D01*
X79400Y48800D01*
X79983Y47800D01*
X80392Y47350D01*
X80975Y47050D01*
X81500Y46950D01*
Y49050D01*
G01X78500Y33000D02*
Y36500D01*
X79750D01*
X80150Y36325D01*
X80400Y36092D01*
X80500Y35625D01*
X80400Y35158D01*
X80100Y34867D01*
X79750Y34692D01*
X78500D01*
G01X79750D02*
X80500Y33000D01*
G01X81900Y33700D02*
X82200Y33292D01*
X82600Y33058D01*
X83050Y33000D01*
X83450Y33058D01*
X83850Y33350D01*
X84100Y33700D01*
X84150Y34050D01*
X84050Y34458D01*
X83700Y34750D01*
X83350Y34867D01*
X82900D01*
G01X83350D02*
X83650Y35042D01*
X83900Y35333D01*
X84000Y35683D01*
X83900Y36033D01*
X83650Y36325D01*
X83200Y36500D01*
X82750Y36442D01*
X82300Y36208D01*
G01X102800Y3250D02*
X103800D01*
Y2200D01*
X103500Y1850D01*
X103150Y1617D01*
X102650Y1500D01*
X102150Y1617D01*
X101800Y1850D01*
X101500Y2200D01*
X101300Y2608D01*
X101200Y3075D01*
Y3483D01*
X101300Y3833D01*
X101500Y4242D01*
X101800Y4592D01*
X102100Y4825D01*
X102500Y5000D01*
X102850D01*
X103250Y4883D01*
X103550Y4650D01*
G01X104850Y1500D02*
Y5000D01*
X107150Y1500D01*
Y5000D01*
G01X108400Y1500D02*
Y5000D01*
X109400D01*
X109800Y4825D01*
X110100Y4592D01*
X110350Y4242D01*
X110550Y3833D01*
X110600Y3250D01*
X110550Y2667D01*
X110350Y2258D01*
X110100Y1908D01*
X109800Y1675D01*
X109400Y1500D01*
X108400D01*
G01X102650Y17025D02*
X102950Y16733D01*
X103300Y16558D01*
X103750Y16500D01*
X104200Y16617D01*
X104550Y16850D01*
X104800Y17258D01*
X104850Y17725D01*
X104750Y18192D01*
X104500Y18483D01*
X104150Y18717D01*
X103800Y18775D01*
X103450Y18717D01*
X103000Y18483D01*
X103150Y20000D01*
X104500D01*
G01X106000D02*
X107250Y16500D01*
X108500Y20000D01*
G01X101500Y6500D02*
Y10000D01*
X102750D01*
X103150Y9825D01*
X103400Y9592D01*
X103500Y9125D01*
X103400Y8658D01*
X103100Y8367D01*
X102750Y8192D01*
X101500D01*
G01X102750D02*
X103500Y6500D01*
G01X104950D02*
X107050Y10000D01*
G01X104950D02*
X107050Y6500D01*
G01X108400D02*
Y10000D01*
X109400D01*
X109800Y9825D01*
X110100Y9592D01*
X110350Y9242D01*
X110550Y8833D01*
X110600Y8250D01*
X110550Y7667D01*
X110350Y7258D01*
X110100Y6908D01*
X109800Y6675D01*
X109400Y6500D01*
X108400D01*
G01X102000Y15000D02*
Y11500D01*
G01X100850Y15000D02*
X103150D01*
G01X104450Y11500D02*
X106550Y15000D01*
G01X104450D02*
X106550Y11500D01*
G01X107900D02*
Y15000D01*
X108900D01*
X109300Y14825D01*
X109600Y14592D01*
X109850Y14242D01*
X110050Y13833D01*
X110100Y13250D01*
X110050Y12667D01*
X109850Y12258D01*
X109600Y11908D01*
X109300Y11675D01*
X108900Y11500D01*
X107900D01*
G01X87500Y6500D02*
Y10000D01*
X88700D01*
X89100Y9825D01*
X89400Y9417D01*
X89500Y8950D01*
X89400Y8483D01*
X89150Y8133D01*
X88700Y7958D01*
X87500D01*
G01X90500Y10000D02*
X91200Y6500D01*
X92000Y10000D01*
X92800Y6500D01*
X93500Y10000D01*
G01X94500Y6500D02*
Y10000D01*
X95750D01*
X96150Y9825D01*
X96400Y9592D01*
X96500Y9125D01*
X96400Y8658D01*
X96100Y8367D01*
X95750Y8192D01*
X94500D01*
G01X95750D02*
X96500Y6500D01*
G01X105750Y41200D02*
X106000Y40850D01*
X106300Y40617D01*
X106650Y40500D01*
X107050Y40617D01*
X107350Y40850D01*
X107650Y41200D01*
X107750Y41667D01*
Y44000D01*
G01X110250Y40500D02*
Y44000D01*
X109650Y43300D01*
G01Y40500D02*
X110850D01*
G01X109850Y58708D02*
X109550Y58883D01*
X109200Y59000D01*
X108800D01*
X108350Y58825D01*
X108000Y58533D01*
X107750Y58183D01*
X107550Y57600D01*
X107500Y57075D01*
X107600Y56550D01*
X107750Y56200D01*
X108050Y55850D01*
X108400Y55617D01*
X108750Y55500D01*
X109100D01*
X109450Y55617D01*
X109750Y55792D01*
X110000Y56025D01*
G01X111150Y56200D02*
X111450Y55792D01*
X111850Y55558D01*
X112300Y55500D01*
X112700Y55558D01*
X113100Y55850D01*
X113350Y56200D01*
X113400Y56550D01*
X113300Y56958D01*
X112950Y57250D01*
X112600Y57367D01*
X112150D01*
G01X112600D02*
X112900Y57542D01*
X113150Y57833D01*
X113250Y58183D01*
X113150Y58533D01*
X112900Y58825D01*
X112450Y59000D01*
X112000Y58942D01*
X111550Y58708D01*
G01X115000Y53700D02*
X115250Y53350D01*
X115550Y53117D01*
X115900Y53000D01*
X116300Y53117D01*
X116600Y53350D01*
X116900Y53700D01*
X117000Y54167D01*
Y56500D01*
G01X118550Y55917D02*
X118850Y56267D01*
X119200Y56442D01*
X119600Y56500D01*
X120100Y56383D01*
X120450Y56092D01*
X120550Y55742D01*
X120500Y55392D01*
X120300Y55100D01*
X119300Y54517D01*
X118850Y54108D01*
X118550Y53525D01*
X118450Y53000D01*
X120550D01*
G54D13*
G01X44650Y44100D02*
Y18900D01*
G02X35500Y9750I-9150J0D01*
G02X26350Y18900I0J9150D01*
G01Y44100D01*
G02X35500Y53250I9150J0D01*
G02X44650Y44100I0J-9150D01*
G01X46964Y52000D02*
G03I-1964J0D01*
G54D14*
G01X560Y8665D02*
X-57310D01*
Y54335D01*
X560D01*
G01Y31505D02*
X-10860D01*
Y35445D01*
X-16760D01*
Y31505D01*
X-42350D01*
Y35445D01*
X-48260D01*
Y31505D01*
X-57310D01*
G01X-26600Y13785D02*
Y25595D01*
X-36450D01*
Y13785D01*
X-26600D01*
G01Y37415D02*
Y49225D01*
X-36450D01*
Y37415D01*
X-26600D01*
G01X16310Y13005D02*
Y50005D01*
G01X5290Y8665D02*
X560D01*
Y54335D01*
X5290D01*
M02*
